<?xml version="1.0" encoding="utf-8"?>
<!DOCTYPE svg PUBLIC "-//W3C//DTD SVG 1.1//EN" "http://www.w3.org/Graphics/SVG/1.1/DTD/svg11.dtd">
<svg version="1.1" xmlns="http://www.w3.org/2000/svg" xmlns:xlink="http://www.w3.org/1999/xlink" width="32" height="32" viewBox="0 0 32 32">
<path  d="M32,1.538C32,0.692,31.31,0,30.461,0H1.539C0.688,0,0,0.692,0,1.538c0,0.645,0.4,1.193,0.964,1.422v20.757  c0,0.316,0.257,0.574,0.575,0.574h13.885v2.893l-9.277,3.709c-0.295,0.119-0.438,0.453-0.319,0.748C5.917,31.863,6.132,32,6.359,32 c0.07,0,0.144-0.014,0.213-0.041l9.426-3.766l9.429,3.766C25.496,31.986,25.569,32,25.641,32c0.228,0,0.441-0.137,0.532-0.36 c0.117-0.295-0.024-0.628-0.319-0.748l-9.281-3.709v-2.893h13.889c0.318,0,0.574-0.258,0.574-0.574V2.959 C31.6,2.731,32,2.183,32,1.538z M1.539,1.148h28.922c0.213,0,0.391,0.179,0.391,0.389c0,0.216-0.174,0.392-0.391,0.392H1.539 c-0.217,0-0.391-0.175-0.391-0.392C1.148,1.324,1.322,1.148,1.539,1.148z M29.888,23.142H2.112V3.076h27.775V23.142z"></path>
</svg>
