<?xml version="1.0" encoding="utf-8"?>
<!DOCTYPE svg PUBLIC "-//W3C//DTD SVG 1.1//EN" "http://www.w3.org/Graphics/SVG/1.1/DTD/svg11.dtd">
<svg version="1.1" xmlns="http://www.w3.org/2000/svg" xmlns:xlink="http://www.w3.org/1999/xlink" width="32" height="32" viewBox="0 0 32 32">
	<path stroke="#444444" stroke-width="2" stroke-opacity=".5" d="M30.462,0H1.539C0.689,0,0,0.691,0,1.538c0,0.645,0.398,1.194,0.965,1.421v20.755 c0,0.316,0.255,0.575,0.574,0.575h13.887v2.892l-9.279,3.71c-0.295,0.121-0.437,0.455-0.319,0.747C5.916,31.862,6.131,32,6.359,32 c0.07,0,0.144-0.015,0.212-0.041L16,28.19l9.429,3.769C25.498,31.985,25.572,32,25.643,32c0.227,0,0.443-0.138,0.533-0.362 c0.116-0.292-0.024-0.626-0.32-0.747l-9.282-3.71v-2.892h13.889c0.315,0,0.573-0.259,0.573-0.575V2.959 C31.599,2.732,32,2.183,32,1.538C32,0.691,31.312,0,30.462,0z M1.539,1.149h28.923c0.215,0,0.39,0.174,0.39,0.389 c0,0.216-0.175,0.39-0.39,0.39H1.539c-0.217,0-0.391-0.174-0.391-0.39C1.148,1.323,1.322,1.149,1.539,1.149z M29.886,23.141H2.111 V3.076h27.774V23.141z"></path>
	<path stroke="#CCCCFF" d="M15.998,19.467c3.507,0,6.358-2.853,6.358-6.356c0-3.509-2.852-6.36-6.358-6.36 c-3.506,0-6.356,2.852-6.356,6.36C9.642,16.614,12.492,19.467,15.998,19.467z M21.149,12.536h-4.576l-0.001-4.579 C18.982,8.227,20.881,10.127,21.149,12.536z M15.424,7.957l0.002,5.726h5.724c-0.287,2.602-2.475,4.636-5.151,4.636 c-2.871,0-5.207-2.336-5.207-5.208C10.791,10.436,12.824,8.246,15.424,7.957z"></path>
</svg>
